<?xml version="1.0" encoding="UTF-8"?>
<svg id="Capa_2" data-name="Capa 2" xmlns="http://www.w3.org/2000/svg" xmlns:xlink="http://www.w3.org/1999/xlink" viewBox="0 0 360 360">
  <defs>
    <style>
      .cls-1 {
        fill: url(#linear-gradient-2);
      }

      .cls-2 {
        fill: url(#linear-gradient);
      }
    </style>
    <linearGradient id="linear-gradient" x1="-127.76" y1="454.73" x2="458.75" y2="44.37" gradientUnits="userSpaceOnUse">
      <stop offset=".15" stop-color="#ffe8a3"/>
      <stop offset="1" stop-color="#ff9936"/>
    </linearGradient>
    <linearGradient id="linear-gradient-2" x1="-207.55" y1="340.68" x2="378.95" y2="-69.67" xlink:href="#linear-gradient"/>
  </defs>
  <g id="RHODVS">
    <g>
      <circle cx="180" cy="180" r="180"/>
      <g>
        <path class="cls-2" d="m204.74,332.47h47.26v-.45c-8.28-6.74-14.74-18.87-18.38-30.1l-14.63-45.15c22.74-12.77,36.42-36.97,36.42-67.7,0-44.54-29.62-74.58-73.96-74.58-47.85,0-76.85,30.87-76.85,77.48,0,28.75,12.55,52.83,35.05,65.39l-14.68,46.59c-4.04,13.03-9.9,23.36-16.96,28.08v.45h43.22v-.45c-3.23-4.27-3.64-13.03-1.01-22.01l16.96-56.39c3.23-10.56,7.88-29.65,10.5-46.28h.81c2.02,16.4,7.27,35.49,10.5,46.05l17.77,57.06c2.63,8.54,1.21,17.3-2.02,21.56v.45Zm-1.62-124.68c-5.05-15.5-2.02-26.73,1.82-31v-.45h-51.5v.45c3.84,4.27,6.66,15.28,1.82,31l-7.45,23.64c-8.17-9.61-12.35-23.85-12.35-41.54,0-32.32,16.57-53.86,43.92-53.86s45.16,20.1,45.16,55.1c0,17.33-5.11,31.31-13.62,40.71l-7.79-24.05Z"/>
        <path class="cls-1" d="m180,106.6c13.48,0,24.4-10.92,24.4-24.4,0-.43-.01-.87-.03-1.29h0c0-15.49-17.5-22.59-23.03-36.87-3.63-9.37-1.99-16.51-1.99-16.51h0c-1.47,1.63-2.85,3.28-4.15,4.94-2,3.1-3.99,7.57-4.04,13.22-.12,11.48,2.93,20.96-1.52,20.96-3.93,0,.07-15.86-2.63-22.01-9.04,15.95-11.4,30.75-11.4,37.56,0,13.48,10.92,24.4,24.4,24.4Z"/>
      </g>
    </g>
  </g>
</svg>