<?xml version="1.0" encoding="UTF-8"?>
<svg id="Capa_2" data-name="Capa 2" xmlns="http://www.w3.org/2000/svg" viewBox="0 0 129.87 262.6">
  <g id="RHODVS">
    <g>
      <path d="m86.24,262.6h40.69v-.39c-7.13-5.8-12.7-16.25-15.83-25.92l-12.6-38.88c19.59-11,31.36-31.84,31.36-58.3,0-38.35-25.51-64.22-63.69-64.22C24.97,74.89,0,101.47,0,141.61c0,24.76,10.81,45.49,30.18,56.31l-12.64,40.12c-3.48,11.22-8.52,20.12-14.61,24.18v.39h37.22v-.39c-2.78-3.67-3.13-11.22-.87-18.96l14.61-48.56c2.78-9.09,6.78-25.53,9.04-39.85h.7c1.74,14.12,6.26,30.57,9.04,39.66l15.3,49.14c2.26,7.35,1.04,14.9-1.74,18.57v.39Zm-1.39-107.36c-4.35-13.35-1.74-23.02,1.56-26.7v-.39h-44.35v.39c3.3,3.68,5.74,13.16,1.57,26.7l-6.41,20.35c-7.04-8.27-10.64-20.53-10.64-35.77,0-27.83,14.27-46.38,37.82-46.38s38.89,17.3,38.89,47.45c0,14.93-4.4,26.96-11.73,35.06l-6.71-20.71Z"/>
      <path d="m64.93,68.09c11.6,0,21.01-9.41,21.01-21.01,0-.37-.01-.75-.03-1.11h0c0-13.34-15.07-19.45-19.83-31.75C62.96,6.15,64.37,0,64.37,0h0c-1.27,1.41-2.45,2.83-3.58,4.25-1.72,2.67-3.43,6.52-3.48,11.38-.1,9.88,2.52,18.05-1.31,18.05-3.38,0,.06-13.66-2.26-18.95-7.79,13.73-9.81,26.48-9.81,32.35,0,11.6,9.41,21.01,21.01,21.01Z"/>
    </g>
  </g>
</svg>