<?xml version="1.0" encoding="UTF-8"?>
<svg id="Capa_2" data-name="Capa 2" xmlns="http://www.w3.org/2000/svg" viewBox="0 0 381.27 337.14">
  <g id="RHODVS">
    <g>
      <polygon points="109.15 336.75 112.14 336.75 112.14 328.99 121.83 328.99 121.83 326.28 112.14 326.28 112.14 320.71 122.87 320.71 122.87 317.99 109.15 317.99 109.15 336.75"/>
      <rect x="145.35" y="317.99" width="3" height="18.76"/>
      <polygon points="175.37 317.99 172.37 317.99 172.37 336.75 185.61 336.75 185.61 334.03 175.37 334.03 175.37 317.99"/>
      <polygon points="218.74 332.18 211.09 317.99 208.46 317.99 208.46 336.75 211.37 336.75 211.37 324.76 217.81 336.75 219.66 336.75 226.1 324.76 226.1 336.75 229.01 336.75 229.01 317.99 226.41 317.99 218.74 332.18"/>
      <path d="m262.31,326.28l-4.06-.87c-.82-.17-1.42-.44-1.81-.81-.38-.37-.57-.89-.57-1.54,0-.84.34-1.53,1.01-2.06.67-.53,1.56-.8,2.66-.8s2.07.3,2.86.91,1.26,1.4,1.43,2.39l3-.62c-.34-1.62-1.15-2.91-2.45-3.86-1.3-.95-2.89-1.43-4.77-1.43-2.07,0-3.74.51-5,1.53-1.26,1.02-1.89,2.36-1.89,4.02,0,2.67,1.58,4.37,4.73,5.1l4.09.84c.95.21,1.63.49,2.03.87.4.37.6.91.6,1.62,0,.88-.35,1.58-1.05,2.11-.7.53-1.67.8-2.9.8s-2.36-.3-3.22-.91-1.4-1.5-1.62-2.67l-3.19.67c.22,1.75,1.05,3.12,2.49,4.1,1.44.98,3.19,1.47,5.26,1.47s3.91-.52,5.22-1.55c1.32-1.04,1.97-2.43,1.97-4.19,0-2.71-1.61-4.42-4.82-5.12Z"/>
      <path d="m45.12,292.01c-2.83-4.39-5.65-8.83-8.48-13.31,7.69-3.61,12.46-10.27,12.48-20.3.03-12.26-8.48-19.39-23.13-18.3-8.67.68-17.33,1.41-25.99,2.2,0,.07,0,.14,0,.2,2.38,1.52,4.94,6.14,4.94,14.12,0,13.45,0,26.9-.01,40.36,0,8.28-2.56,13.74-4.93,15.98,0,.07,0,.14,0,.2,7.32-1.53,14.65-2.97,21.98-4.32,0-.07,0-.13,0-.2-2.01-1.3-4.55-5.58-4.55-13.43.02-14.87.03-29.75.04-44.62,2.14-.24,4.27-.48,6.4-.71,7.87-.82,12.26,3.25,12.25,10.27-.02,8.57-4.41,12.46-12.28,13.49-1.46.19-2.93.38-4.39.58,4.71,8.1,9.43,16.04,14.14,23.84,2.01,3.26,3.46,6.39,4.64,9.94,6.25-2.24,12.5-4.39,18.76-6.45,0-.06,0-.12,0-.19-4.39-.87-8.41-4.04-11.87-9.36Z"/>
      <path d="m189.44,237.84c.33-.59.66-1.18,1-1.77,2.01-3.52,3.49-5.93,7.34-8.4-.03-.06-.06-.12-.09-.17-6.15-.02-12.29-.01-18.44.02.25,1.51-.1,3.38-.98,5.5-2.91-.66-6.03-1-9.34-.97-21.19.18-34.06,13.56-34.09,33.23-.02,10.65,4.22,19.44,11.96,24.72-.19.34-.37.67-.55,1.01-2.31,4.1-4.42,7.16-7.55,9.87.03.06.06.11.09.17,6.43-.38,12.87-.7,19.3-.94-.34-1.75-.25-3.46.32-5.44,2.81.54,5.85.77,9.1.68,20.51-.51,34.21-13.25,34.19-32.45,0-10.85-4.54-19.66-12.26-25.05Zm-40.92,26.04c.02-13.53,7.37-22.74,19.49-22.88,2.02-.02,3.89.2,5.63.61-7,12.48-14,25.04-21.02,37.78-2.72-3.82-4.11-9.08-4.1-15.51Zm19.91,22.49c-2.1.05-4.03-.15-5.8-.54,7.02-12.69,14.04-25.24,21.04-37.72,2.81,3.82,4.34,9.08,4.34,15.6,0,13.74-8.28,22.4-19.58,22.66Z"/>
      <path d="m103.16,235.65c2.2,1.43,4.66,5.6,4.65,12.97,0,3.67-.02,7.35-.02,11.03-8.14.49-16.27,1.04-24.4,1.66.01-3.76.02-7.52.03-11.28.02-7.47,2.6-12.06,4.71-13.7v-.18c-7.4.36-14.79.76-22.18,1.2,0,.06,0,.12,0,.19,2.38,1.44,4.93,5.71,4.92,13.36-.03,12.14-.06,24.29-.09,36.43-.02,7.55-2.68,12.41-4.98,14.31,0,.06,0,.13,0,.19,7.38-1.01,14.78-1.92,22.18-2.75,0-.06,0-.12,0-.18-2.2-1.29-4.66-5.37-4.64-12.93.01-5.19.03-10.37.04-15.55,8.13-.7,16.26-1.33,24.4-1.87-.01,5.19-.03,10.37-.04,15.56-.02,6.93-2.6,11.52-4.71,13.24,0,.06,0,.12,0,.18,7.4-.71,14.81-1.32,22.22-1.85,0-.06,0-.12,0-.18-2.38-1.32-4.95-5.36-4.93-12.32.03-11.71.05-23.42.07-35.14.02-7.23,2.68-11.63,4.98-13.19,0-.06,0-.12,0-.18-7.4.23-14.8.5-22.2.81,0,.06,0,.12,0,.18Z"/>
      <path d="m237.39,234.17c-8.87-.2-17.74-.34-26.61-.42,0,.06,0,.11,0,.17,2.39,1.48,4.96,6.43,4.97,12.8,0,11.34.02,22.69.03,34.03,0,7.06-2.66,11.21-4.95,12.63,0,.06,0,.11,0,.17,8.4.19,16.79.48,25.19.9,22.7,1.23,33.41-9.06,33.37-28.58-.05-19.38-12.73-31.32-31.99-31.7Zm-.47,51.73c-2.85-.13-5.7-.25-8.55-.36-.02-14.33-.04-28.66-.05-42.99,2.7.06,5.38.12,8.08.19,13.12.33,19.38,7.52,19.4,22.37.03,14.16-6.57,21.39-18.88,20.79Z"/>
      <path d="m316.23,237.4c0,.06,0,.12,0,.19,1.47,1.85,1.66,5.5.48,9.13-2.55,7.59-5.1,15.12-7.64,22.58-1.46,4.19-3.55,11.79-4.72,18.43-.12-.01-.24-.03-.37-.04-.93-6.79-3.33-14.79-4.81-19.18-2.71-7.94-5.42-15.81-8.12-23.61-1.21-3.5-.56-6.98.89-8.63,0-.06,0-.12,0-.18-7.15-.34-14.3-.65-21.46-.92,0,.06,0,.12,0,.18,3.76,2.8,6.71,7.75,8.37,12.3,4.65,12.72,9.29,25.6,13.94,38.7,2.31,6.48.94,10.88-.79,12.4,0,.06,0,.12,0,.18,7.8.86,15.59,1.82,23.37,2.88,0-.06,0-.12,0-.19-1.74-2.01-3.04-6.68-.85-12.9,4.55-12.67,9.1-25.53,13.65-38.6,1.82-5.32,4.47-9.48,7.67-11.26,0-.06,0-.13,0-.19-6.53-.45-13.07-.87-19.61-1.26Z"/>
      <path d="m363.45,267.9c-5.94-3.42-11.07-6.21-11.08-11.86,0-4.96,3.56-7.18,10.51-6.53,5.31.51,10.52,2.6,14.46,9.75.06,0,.12.01.18.02-.4-5.59-.79-11.16-1.19-16.73-5.31-1.99-9.61-2.94-14.37-3.31-14.19-1.06-21.96,7.14-21.95,16.56.02,13.27,8.91,18.23,16.87,22.87,6.22,3.59,11.79,7.05,11.8,13.96,0,5.41-3.19,8.21-10.58,7.14-7.49-1.07-13.44-4.86-18.94-13.07-.06.02-.12.05-.18.07.53,5.42,1.06,10.86,1.58,16.31,4.11,3.24,11.07,5.79,18.46,7.08,14.78,2.65,22.25-4.98,22.25-16.38,0-15.35-9.68-21.24-17.82-25.89Z"/>
      <circle cx="95.52" cy="327.73" r="1.88"/>
      <circle cx="280.75" cy="327.73" r="1.88"/>
      <g>
        <path d="m203.78,192.85h29.88v-.29c-5.24-4.26-9.32-11.93-11.62-19.03l-9.25-28.56c14.38-8.08,23.03-23.38,23.03-42.81,0-28.17-18.73-47.16-46.77-47.16-30.26,0-48.6,19.52-48.6,49,0,18.18,7.94,33.41,22.17,41.35l-9.28,29.46c-2.55,8.24-6.26,14.77-10.73,17.76v.29h27.33v-.29c-2.04-2.7-2.3-8.24-.64-13.92l10.73-35.66c2.04-6.68,4.98-18.75,6.64-29.26h.51c1.28,10.37,4.6,22.45,6.64,29.12l11.24,36.08c1.66,5.4.77,10.94-1.28,13.64v.29Zm-1.02-78.84c-3.19-9.8-1.28-16.91,1.15-19.6v-.28h-32.57v.28c2.43,2.7,4.21,9.66,1.15,19.6l-4.71,14.95c-5.17-6.08-7.81-15.08-7.81-26.27,0-20.44,10.48-34.06,27.77-34.06s28.56,12.71,28.56,34.85c0,10.96-3.23,19.8-8.62,25.75l-4.93-15.21Z"/>
        <path d="m188.13,50.01c8.52,0,15.43-6.91,15.43-15.43,0-.27,0-.55-.02-.82h0c0-9.79-11.06-14.29-14.56-23.31-2.3-5.92-1.26-10.44-1.26-10.44h0c-.93,1.03-1.8,2.08-2.63,3.12-1.27,1.96-2.52,4.79-2.56,8.36-.07,7.26,1.85,13.26-.96,13.26-2.48,0,.05-10.03-1.66-13.92-5.72,10.09-7.21,19.45-7.21,23.75,0,8.52,6.91,15.43,15.43,15.43Z"/>
      </g>
    </g>
  </g>
</svg>